<?xml version="1.0" encoding="utf-8"?>
<!-- Generator: Adobe Illustrator 21.0.0, SVG Export Plug-In . SVG Version: 6.00 Build 0)  -->
<svg version="1.1" id="Layer_1" xmlns="http://www.w3.org/2000/svg" xmlns:xlink="http://www.w3.org/1999/xlink" x="0px" y="0px"
	 viewBox="0 0 1280 1024" style="enable-background:new 0 0 1280 1024;" xml:space="preserve">
<style type="text/css">
	.st0{fill:#EE4036;}
</style>
<g>
	<g>
		<path class="st0" d="M597.4,521.8c-0.1,0-0.3-0.1-0.5-0.2l-5.8-5.6c-0.3-0.3-0.5-0.5-0.6-0.6c-0.1-0.1-0.3-0.3-0.4-0.5
			c-0.1-0.2-0.2-0.4-0.2-0.7v-0.8c0-0.3,0.1-0.5,0.2-0.7c0.2-0.2,0.3-0.4,0.4-0.5c0.1-0.1,0.3-0.3,0.6-0.6l5.8-5.8
			c0.2-0.1,0.3-0.2,0.5-0.2c0.2,0,0.4,0.1,0.5,0.2c0.1,0.2,0.2,0.3,0.2,0.5v0.9c0,0.1,0,0.2,0,0.3c0,0.1-0.1,0.2-0.1,0.2
			c0,0.1-0.1,0.2-0.1,0.2c-0.1,0.1-0.1,0.2-0.1,0.2c0,0.1-0.1,0.1-0.2,0.2c-0.1,0.1-0.2,0.2-0.2,0.2s-0.1,0.1-0.2,0.2
			c-0.1,0.1-0.2,0.2-0.2,0.2l-4.5,4.6c-0.1,0.1-0.2,0.2-0.2,0.3c0,0.1,0.1,0.2,0.2,0.3l4.5,4.4c0.1,0.1,0.1,0.1,0.2,0.2
			c0.1,0.1,0.2,0.2,0.2,0.2c0.1,0.1,0.1,0.1,0.2,0.2c0.1,0.1,0.1,0.1,0.2,0.2c0.1,0.1,0.1,0.1,0.1,0.2s0.1,0.2,0.1,0.2
			c0,0.1,0.1,0.2,0.1,0.2c0,0.1,0,0.2,0,0.3v1c0,0.2-0.1,0.4-0.2,0.5C597.7,521.7,597.6,521.8,597.4,521.8z"/>
		<path class="st0" d="M603,527.6c-0.1,0-0.2-0.2-0.2-0.4v-0.1c0-0.1,0-0.1,0-0.1l4.7-29.4c0.1-0.4,0.2-0.6,0.4-0.6h2.8
			c0.2,0,0.2,0.2,0.2,0.4c0,0.1,0,0.2,0,0.2l-4.7,29.4c-0.1,0.4-0.2,0.6-0.4,0.6H603z"/>
		<path class="st0" d="M615.3,524.2c-0.2,0-0.3-0.1-0.4-0.2s-0.1-0.3-0.1-0.6v-22.2c0-0.3,0.1-0.6,0.1-0.6c0.1-0.1,0.2-0.2,0.4-0.2
			h2.9c0.2,0,0.3,0.1,0.4,0.2c0.1,0.1,0.1,0.3,0.1,0.6v8.8c0,0.1,0,0.2,0.1,0.3c0.1,0.1,0.1,0.1,0.2,0.1h6c0.1,0,0.1-0.1,0.2-0.1
			c0.1-0.1,0.1-0.2,0.1-0.3v-8.8c0-0.3,0.1-0.5,0.2-0.6c0.1-0.1,0.2-0.2,0.4-0.2h3c0.2,0,0.3,0.1,0.4,0.2c0.1,0.1,0.1,0.3,0.1,0.6
			v22.2c0,0.3-0.1,0.6-0.1,0.6c-0.1,0.1-0.2,0.2-0.4,0.2h-3c-0.1,0-0.2,0-0.3-0.1s-0.1-0.1-0.2-0.2c-0.1-0.1-0.1-0.3-0.1-0.5v-10.1
			c0-0.3-0.1-0.4-0.2-0.4h-6c-0.2,0-0.2,0.1-0.2,0.4v10.1c0,0.3-0.1,0.5-0.2,0.6c-0.1,0.1-0.2,0.2-0.4,0.2H615.3z"/>
		<path class="st0" d="M636.5,524.2c-0.2,0-0.3-0.1-0.4-0.2c-0.1-0.1-0.2-0.3-0.2-0.6v-19.9c0-0.3-0.1-0.4-0.2-0.4h-3.5
			c-0.2,0-0.2,0-0.3,0c-0.1,0-0.1-0.1-0.2-0.2c-0.1-0.1-0.1-0.3-0.1-0.5v-1.3c0-0.3,0.1-0.5,0.1-0.6c0.1-0.1,0.2-0.2,0.4-0.2h11.3
			c0.2,0,0.3,0.1,0.4,0.2c0.1,0.1,0.1,0.3,0.1,0.6v1.3c0,0.3-0.1,0.5-0.1,0.5s-0.2,0.1-0.4,0.1h-3.4c-0.2,0-0.2,0.2-0.2,0.4v19.9
			c0,0.3-0.1,0.6-0.2,0.7c-0.1,0.1-0.2,0.2-0.4,0.2L636.5,524.2L636.5,524.2z"/>
		<path class="st0" d="M646.9,524.2c-0.3,0-0.5-0.3-0.5-0.8v-0.1l0.9-21.9c0-0.6,0.2-0.9,0.5-0.9h3.2c0.2,0,0.4,0.1,0.5,0.2
			c0.2,0.1,0.3,0.3,0.3,0.6l3.4,15.6c0,0.1,0.1,0.1,0.1,0.1c0.1,0,0.1,0,0.1,0s0.1-0.1,0.1-0.1l3.4-15.5c0.1-0.5,0.4-0.8,0.8-0.8
			h3.2c0.3,0,0.5,0.4,0.5,0.9l0.9,21.9v0.1c0,0.5-0.2,0.8-0.5,0.8h-2.2c-0.3,0-0.5-0.3-0.5-0.9l-0.6-17c0-0.1,0-0.1-0.1-0.1
			s-0.1,0-0.1,0.1l-3.6,17.1c-0.1,0.5-0.4,0.8-0.7,0.8h-1.3c-0.3,0-0.6-0.3-0.7-0.8l-3.5-17c0-0.1-0.1-0.1-0.1-0.1c0,0,0,0.1,0,0.1
			l-0.7,16.9c0,0.6-0.2,0.9-0.5,0.9H646.9L646.9,524.2z"/>
		<path class="st0" d="M668.9,524.2c-0.2,0-0.3-0.1-0.4-0.2c-0.1-0.1-0.1-0.3-0.1-0.6v-22.2c0-0.3,0.1-0.6,0.1-0.6
			c0.1-0.1,0.2-0.2,0.4-0.2h3c0.2,0,0.3,0.1,0.4,0.2c0.1,0.1,0.1,0.3,0.1,0.6v20c0,0.3,0.1,0.4,0.3,0.4h5.2c0.2,0,0.3,0.1,0.4,0.1
			c0.1,0.1,0.1,0.3,0.1,0.5v1.3c0,0.3-0.1,0.5-0.1,0.6c-0.1,0.1-0.2,0.1-0.4,0.1H668.9z"/>
		<path class="st0" d="M682.8,521.8c-0.2,0-0.4-0.1-0.5-0.2s-0.2-0.3-0.2-0.5v-0.9c0-0.1,0-0.2,0-0.2s0-0.2,0.1-0.2
			c0-0.1,0.1-0.1,0.1-0.2c0.1-0.1,0.1-0.1,0.1-0.2s0.1-0.1,0.1-0.2c0.1-0.1,0.1-0.1,0.1-0.2s0.1-0.1,0.1-0.2
			c0.1-0.1,0.1-0.1,0.2-0.2c0.1,0,0.1-0.1,0.2-0.2c0.1-0.1,0.2-0.1,0.2-0.2l4.5-4.6c0.1-0.1,0.2-0.2,0.2-0.3s-0.1-0.2-0.2-0.3
			l-4.4-4.4c-0.1-0.1-0.1-0.1-0.3-0.2c-0.1-0.1-0.2-0.2-0.2-0.2c-0.1-0.1-0.1-0.1-0.2-0.2c-0.1-0.1-0.2-0.2-0.2-0.2
			c0-0.1-0.1-0.1-0.1-0.2c-0.1-0.1-0.1-0.2-0.1-0.3c0-0.1,0-0.2,0-0.3v-1.1c0-0.2,0.1-0.4,0.2-0.5c0.1-0.1,0.3-0.2,0.5-0.2
			c0.2,0,0.3,0.1,0.5,0.2l5.8,5.7c0.3,0.3,0.5,0.5,0.6,0.6c0.1,0.1,0.2,0.3,0.3,0.5c0.1,0.2,0.2,0.5,0.2,0.7v0.8c0,0.1,0,0.2,0,0.3
			c0,0.1-0.1,0.2-0.1,0.2c-0.1,0.1-0.1,0.2-0.1,0.2s-0.1,0.1-0.1,0.2s-0.1,0.2-0.1,0.2s-0.1,0.1-0.2,0.2c-0.1,0.1-0.2,0.2-0.2,0.2
			s-0.1,0.1-0.2,0.2c-0.1,0.1-0.2,0.2-0.2,0.2l-5.8,5.8C683.1,521.7,683,521.8,682.8,521.8z"/>
	</g>
</g>
</svg>
